<svg xmlns="http://www.w3.org/2000/svg" width="1200" height="360" viewBox="0 0 1200 360" role="img" aria-labelledby="title desc">
  <title id="title">CrystalShift XRD</title>
  <desc id="desc">Theoretical powder XRD workbench for orthorhombic Cmcm 4c with live evolution and schema 2.4 export.</desc>
  <rect width="1200" height="360" rx="26" fill="#071018"/>
  <path d="M0 54H1200M700 0V360" stroke="#152028"/>
  <g transform="translate(56 40)" font-family="-apple-system,BlinkMacSystemFont,'Segoe UI',sans-serif">
    <text fill="#6A8A9A" font-family="ui-monospace,SFMono-Regular,Menlo,monospace" font-size="13" letter-spacing="2.2">Cmcm 4c · THEORETICAL POWDER XRD</text>
    <text y="96" fill="#F0F4F6" font-size="48" font-weight="760" letter-spacing="-1.6">CrystalShift XRD</text>
    <text y="144" fill="#A8C0CC" font-size="22">How a, b, c, y, shuffle, and energy move peaks and F².</text>
    <path d="M0 172H500" stroke="#1E3040"/>
    <g transform="translate(0 208)" font-family="ui-monospace,SFMono-Regular,Menlo,monospace" font-size="12">
      <text fill="#F0F4F6">LIVE</text>
      <text x="72" fill="#6A8A9A">SWEEP</text>
      <text x="152" fill="#6A8A9A">F²</text>
      <text x="200" fill="#6A8A9A">FIT</text>
      <text x="256" fill="#5EC8E8">SCHEMA 2.4</text>
    </g>
    <text y="268" fill="#4A6878" font-family="ui-monospace,SFMono-Regular,Menlo,monospace" font-size="12">v2.3.0 · Streamlit · not Rietveld · not abs. calibration</text>
  </g>
  <g transform="translate(740 48)">
    <rect width="400" height="264" fill="#0A141C" stroke="#1E3040"/>
    <g font-family="ui-monospace,SFMono-Regular,Menlo,monospace">
      <text x="24" y="32" fill="#4A7888" font-size="11">WATERFALL · PARAMETER EVOLUTION</text>
      <polyline points="28,200 70,185 110,160 150,168 190,120 230,105 270,98 310,102 350,95" fill="none" stroke="#5EC8E8" stroke-width="2.4"/>
      <polyline points="28,218 70,208 110,190 150,196 190,155 230,142 270,136 310,140 350,134" fill="none" stroke="#5EC8E8" stroke-width="1.6" opacity="0.55"/>
      <polyline points="28,232 70,226 110,214 150,218 190,185 230,175 270,170 310,174 350,168" fill="none" stroke="#5EC8E8" stroke-width="1.2" opacity="0.3"/>
      <text x="24" y="70" fill="#A8C0CC" font-size="13">y · shuffle · energy</text>
      <text x="24" y="252" fill="#4A6878" font-size="11">2θ · q · d · exact precomputed frames</text>
    </g>
  </g>
  <text x="1144" y="336" text-anchor="end" fill="#3A5060" font-family="ui-monospace,SFMono-Regular,Menlo,monospace" font-size="12">D-sudoasd / crystalshift-xrd</text>
</svg>
